<svg width="458" height="302" viewBox="0 0 458 302" fill="none" xmlns="http://www.w3.org/2000/svg">
<path d="M433.615 271.975C448.816 267.078 466.308 284.882 453.645 301.24C453.497 301.418 453.311 301.559 453.099 301.653C452.888 301.746 452.657 301.789 452.426 301.778C452.195 301.768 451.97 301.703 451.768 301.59C451.567 301.478 451.394 301.319 451.264 301.128C451.048 301.276 450.804 301.376 450.547 301.422C450.29 301.468 450.026 301.459 449.772 301.395C421.064 294.941 392.6 286.729 364.448 278.206C337.742 270.15 309.857 262.627 284.553 250.988C284.396 250.907 284.262 250.788 284.161 250.644C284.061 250.499 283.997 250.332 283.975 250.156C283.953 249.981 283.974 249.804 284.036 249.638C284.098 249.473 284.199 249.325 284.33 249.208C284.153 249.176 283.987 249.1 283.848 248.986C283.709 248.871 283.602 248.723 283.537 248.555C283.472 248.387 283.452 248.206 283.478 248.028C283.504 247.85 283.575 247.681 283.685 247.539C291.43 237.747 305.74 239.282 314.463 246.738C314.751 243.045 315.972 239.487 318.012 236.396C320.051 233.305 322.843 230.783 326.125 229.067C326.112 228.979 326.112 228.889 326.125 228.8C328.35 206.545 334.003 180.663 326.125 158.853C318.247 137.044 299.219 121.198 277.32 115.412C228.36 102.504 185.942 135.263 159.37 172.963C161.685 174.262 163.672 176.074 165.178 178.26C169.229 184.246 169.852 196.063 163.309 200.648C163.334 200.884 163.302 201.122 163.215 201.343C163.128 201.564 162.989 201.76 162.81 201.916C162.631 202.071 162.416 202.18 162.185 202.235C161.954 202.289 161.714 202.287 161.484 202.228C134.778 194.572 108.629 181.998 82.2792 172.585C55.9296 163.171 28.8677 154.558 2.162 145.634C1.83745 145.528 1.55995 145.312 1.37718 145.024C1.19442 144.736 1.11781 144.393 1.16053 144.054C0.95194 144.018 0.75432 143.934 0.582506 143.811C0.410691 143.687 0.269147 143.526 0.168497 143.339C0.0678477 143.153 0.0107073 142.946 0.00136518 142.735C-0.00797691 142.523 0.0307221 142.312 0.114557 142.118C6.79099 126.539 25.6408 125.516 35.4329 137.444C37.2355 122.4 42.2206 103.328 60.0244 101.948C62.7945 101.695 65.5867 102.036 68.2142 102.949C90.016 66.2848 122.452 37.1167 161.217 19.316C231.208 -12.9312 328.573 -6.56636 383.765 51.8079C437.043 108.335 451.709 198.066 433.615 271.975ZM451.709 298.213C460.744 281.277 438.845 265.899 426.828 281.922C425.604 283.525 422.978 281.922 423.49 280.075C429.053 260.491 436.175 220.789 408.201 214.045C406.137 213.54 404.026 213.249 401.902 213.177C401.632 213.309 401.335 213.378 401.035 213.378C400.734 213.378 400.437 213.309 400.167 213.177C379.114 213.689 360.976 235.432 353.676 253.058V253.503C353.542 253.893 353.266 254.218 352.903 254.415C352.541 254.611 352.117 254.664 351.717 254.563C351.317 254.463 350.97 254.216 350.743 253.871C350.517 253.526 350.428 253.109 350.494 252.702C352.719 239.883 342.393 226.953 328.929 231.916C321.14 234.765 317.268 243.043 318.224 250.966C318.447 252.835 315.999 253.191 315.042 251.901C307.342 241.708 295.191 242.554 285.421 248.83H285.621C313.328 255.996 340.301 266.633 367.741 274.957C395.182 283.28 423.133 290.246 450.93 297.634C451.233 297.76 451.501 297.958 451.709 298.213ZM429.12 274.2C439.666 232.315 439.582 188.458 428.875 146.613C419.283 109.804 401.613 72.6607 373.016 46.8451C342.126 19.0266 298.996 5.76278 258.092 4.1827C181.491 1.22281 112.212 40.725 71.1518 104.351C79.2081 109.047 82.5908 120.175 83.9261 130.301C90.8861 116.383 102.96 105.697 117.62 100.479C135.279 76.991 158.877 58.6317 185.987 47.2902C211.912 36.2656 240.273 32.2253 268.246 35.5715C296.218 38.9178 322.826 49.5339 345.42 66.3626C366.932 82.9034 383.623 104.902 393.759 130.074C403.895 155.246 407.106 182.673 403.06 209.505C405.656 209.658 408.225 210.114 410.715 210.863C436.709 218.741 434.216 252.034 429.009 274.222C429.009 274.222 429.031 274.244 429.031 274.222L429.12 274.2ZM371.258 222.435C379.336 215.203 389.061 210.062 399.187 209.461C410.626 138.067 366.962 68.8774 298.662 46.0885C233.011 24.2565 166.447 48.9593 122.338 99.1439C129.235 97.4558 136.488 97.9694 143.079 100.613C146.551 101.913 149.722 103.905 152.4 106.468C155.078 109.031 157.207 112.112 158.658 115.523C191.817 72.3714 258.426 60.6653 306.096 84.7005C355.501 109.67 381.606 168.913 371.08 222.547L371.258 222.435ZM367.14 226.374C366.923 226.152 366.766 225.878 366.684 225.578C366.602 225.278 366.599 224.963 366.673 224.661C378.513 171.962 353.053 112.831 304.226 88.1945C255.399 63.5585 196.068 78.803 160.171 118.283C160.037 118.437 159.869 118.559 159.681 118.639C164.132 134.93 155.23 156.472 147.374 170.76C150.759 170.204 154.232 170.621 157.389 171.962C182.025 131.302 229.027 98.8991 278.277 111.696C299.686 117.282 318.87 132.281 327.972 152.644C338.387 175.901 332.801 203.14 330.198 227.576C331.467 227.269 332.765 227.097 334.07 227.064C344.663 226.753 352.742 235.632 354.099 245.402C357.417 238.412 361.818 231.99 367.14 226.374ZM161.284 198.756C162.926 196.154 164.101 193.284 164.755 190.277C165.235 186.9 164.544 183.46 162.797 180.53C159.08 174.499 152.026 172.696 145.505 173.853C144.036 175.344 141.054 173.586 142.345 171.628C152.983 153.334 171.276 112.92 139.14 103.283C116.997 96.6068 88.9111 118.862 84.6605 139.87C84.546 140.294 84.2845 140.663 83.9226 140.911C83.5607 141.16 83.1222 141.271 82.6856 141.226C82.249 141.18 81.8429 140.981 81.5401 140.663C81.2373 140.345 81.0575 139.93 81.0329 139.492C80.5656 125.738 77.8283 103.684 58.9785 105.709C42.2651 107.489 39.3943 128.765 38.0812 141.873C37.9699 143.297 35.967 144.299 35.0991 142.741C27.3322 128.52 10.3072 129.388 2.76288 142.741C30.6036 150.486 58.0438 159.788 85.2836 169.447C110.387 178.349 137.671 186.338 161.284 198.756Z" fill="#27263F"/>
</svg>
