<svg width="169" height="85" viewBox="0 0 169 85" fill="none" xmlns="http://www.w3.org/2000/svg">
<path d="M141.496 68.712C153.512 52.6911 175.407 68.0667 166.373 85C166.132 84.7378 165.824 84.5457 165.483 84.4437C137.691 77.0562 109.855 70.0248 82.3075 61.7696C54.7604 53.5144 27.9031 42.8115 0.200254 35.6466H0C9.76832 29.3717 21.9175 28.5262 29.6165 38.7173C30.5288 39.9188 33.0209 39.6518 32.7984 37.7827C31.8416 29.9503 35.7133 21.5838 43.5013 18.7356C56.8521 13.7736 67.2657 26.7016 65.0628 39.5183C64.9965 39.9254 65.0855 40.3425 65.312 40.6871C65.5385 41.0318 65.8861 41.2789 66.286 41.3796C66.686 41.4803 67.1091 41.4272 67.4718 41.2309C67.8345 41.0346 68.1103 40.7093 68.2447 40.3194V39.8743C75.5432 22.2068 93.678 0.51178 114.728 0C114.998 0.131776 115.295 0.200271 115.595 0.200271C115.896 0.200271 116.193 0.131776 116.463 0C118.587 0.0715961 120.697 0.362406 122.76 0.867799C150.73 7.54319 143.61 47.3063 138.047 66.8874C137.647 68.6453 140.272 70.3141 141.496 68.712Z" fill="white"/>
</svg>
