<svg width="16" height="12" viewBox="0 0 16 12" fill="none" xmlns="http://www.w3.org/2000/svg">
<path fill-rule="evenodd" clip-rule="evenodd" d="M0 2.35717C0 1.05534 1.05534 0 2.35717 0H13.0716C14.3734 0 15.4287 1.05534 15.4287 2.35717V9.64295C15.4287 10.9448 14.3734 12.0001 13.0716 12.0001H2.35717C1.05534 12.0001 0 10.9448 0 9.64295V2.35717ZM2.35717 1.28573C1.76543 1.28573 1.28573 1.76543 1.28573 2.35717V9.64295C1.28573 10.2347 1.76543 10.7144 2.35717 10.7144H13.0716C13.6633 10.7144 14.143 10.2347 14.143 9.64295V2.35717C14.143 1.76543 13.6633 1.28573 13.0716 1.28573H2.35717ZM2.72622 2.79831C2.95728 2.52874 3.36312 2.49752 3.63269 2.72858L7.71436 6.22716L11.796 2.72858C12.0656 2.49752 12.4714 2.52874 12.7025 2.79831C12.9336 3.06788 12.9023 3.47372 12.6328 3.70478L8.13273 7.56196C7.89198 7.76831 7.53674 7.76831 7.29599 7.56196L2.79595 3.70478C2.52638 3.47372 2.49516 3.06788 2.72622 2.79831Z" fill="black"/>
</svg>
