<svg width="11" height="15" viewBox="0 0 11 15" fill="none" xmlns="http://www.w3.org/2000/svg">
<path fill-rule="evenodd" clip-rule="evenodd" d="M5.50001 1.17857C3.15523 1.17857 1.17857 3.24571 1.17857 5.89287C1.17857 7.21468 1.74803 8.56909 2.53262 9.79694C3.31238 11.0172 4.26964 12.0583 4.96567 12.7408C5.26954 13.0388 5.73048 13.0388 6.03436 12.7408C6.73039 12.0583 7.68765 11.0172 8.46741 9.79694C9.25199 8.56909 9.82145 7.21468 9.82145 5.89287C9.82145 3.24571 7.84479 1.17857 5.50001 1.17857ZM0 5.89287C4.68323e-08 2.68185 2.42055 0 5.50001 0C8.57947 0 11 2.68185 11 5.89287C11 7.53584 10.3011 9.1161 9.46054 10.4315C8.61516 11.7545 7.59053 12.8655 6.85954 13.5823C6.09734 14.3297 4.90269 14.3297 4.14049 13.5823C3.4095 12.8655 2.38487 11.7545 1.53948 10.4315C0.698928 9.1161 0 7.53584 0 5.89287ZM5.50001 4.32477C4.8491 4.32477 4.32144 4.85244 4.32144 5.50335C4.32144 6.15425 4.8491 6.68192 5.50001 6.68192C6.15092 6.68192 6.67859 6.15425 6.67859 5.50335C6.67859 4.85244 6.15092 4.32477 5.50001 4.32477ZM3.14286 5.50335C3.14286 4.20153 4.1982 3.1462 5.50001 3.1462C6.80183 3.1462 7.85716 4.20153 7.85716 5.50335C7.85716 6.80516 6.80183 7.86049 5.50001 7.86049C4.1982 7.86049 3.14286 6.80516 3.14286 5.50335Z" fill="black"/>
</svg>
