<svg width="223" height="170" viewBox="0 0 223 170" fill="none" xmlns="http://www.w3.org/2000/svg">
<path d="M220.101 149.149C220.026 149.452 220.03 149.769 220.112 150.07C220.194 150.372 220.352 150.647 220.57 150.87C215.233 156.511 210.821 162.959 207.497 169.977C206.245 160.166 198.133 151.25 187.384 151.563C186.073 151.596 184.77 151.768 183.495 152.077C186.065 127.494 191.674 100.186 181.261 76.8325C172.12 56.3845 152.857 41.3223 131.359 35.7131C81.9706 22.7516 34.7727 55.2895 10.0564 96.1184C6.88609 94.7722 3.39877 94.3537 0 94.9116C7.93336 80.5869 16.9171 58.9322 12.3582 42.5738C12.5469 42.4931 12.7149 42.3709 12.8498 42.2162C48.874 2.57177 108.207 -12.8033 157.393 12.0024C206.58 36.8081 231.989 96.1184 220.101 149.149Z" fill="#6ADFF4"/>
</svg>
