<svg width="163" height="97" viewBox="0 0 163 97" fill="none" xmlns="http://www.w3.org/2000/svg">
<path d="M0.155822 88.4943C0.812411 91.5108 1.99102 94.3893 3.6385 97.0001C27.3252 84.5428 54.6955 76.5282 79.8333 67.6206C107.159 57.9539 134.686 48.6221 162.614 40.8307C155.046 27.4358 138.057 26.4981 130.176 40.8307C129.305 42.3934 127.296 41.3888 127.184 39.96C125.867 26.8107 122.987 5.46809 106.221 3.6821C87.3121 1.65053 84.5662 23.7745 84.0974 37.5713C84.0728 38.0109 83.8924 38.4274 83.5886 38.7461C83.2848 39.0649 82.8774 39.265 82.4395 39.3107C82.0016 39.3564 81.5617 39.2446 81.1986 38.9954C80.8356 38.7462 80.5732 38.3759 80.4584 37.9508C76.1944 16.8315 48.065 -5.4711 25.8517 1.20404C-6.40769 10.8707 11.9657 51.4127 22.6146 69.7637C23.8202 71.84 20.918 73.6036 19.4445 71.9962C12.9033 70.746 5.82633 72.5543 2.09808 78.6937C0.348174 81.642 -0.337396 85.1014 0.155822 88.4943Z" fill="white"/>
</svg>
