<svg width="366" height="271" viewBox="0 0 366 271" fill="none" xmlns="http://www.w3.org/2000/svg">
<path d="M8.09896 142.715C-2.61609 184.591 -2.7003 228.48 7.85395 270.397C2.64245 248.125 0.148057 214.874 26.161 206.99C28.6532 206.24 31.2244 205.784 33.8224 205.631C29.7728 178.779 32.9868 151.332 43.1304 126.141C53.274 100.95 69.9773 78.9351 91.5053 62.3819C114.118 45.5366 140.75 34.9103 168.748 31.5615C196.745 28.2127 225.132 32.2583 251.08 43.2953C278.209 54.6453 301.825 73.0182 319.497 96.5239C334.168 101.746 346.251 112.44 353.216 126.368C354.553 116.234 357.938 105.098 366 100.399C324.909 36.7252 255.579 -2.80645 178.92 0.155644C137.963 1.73691 94.8014 15.0107 63.9778 42.8721C35.3814 68.7069 17.6979 105.878 8.09896 142.715Z" fill="#FF0004"/>
</svg>
