<svg width="169" height="85" viewBox="0 0 169 85" fill="none" xmlns="http://www.w3.org/2000/svg">
<path d="M27.0061 68.712C14.9904 52.6911 -6.90484 68.0667 2.12919 85C2.37044 84.7378 2.67794 84.5457 3.01926 84.4437C30.8111 77.0562 58.6475 70.0248 86.1946 61.7696C113.742 53.5144 140.599 42.8115 168.302 35.6466H168.502C158.734 29.3717 146.585 28.5262 138.886 38.7173C137.973 39.9188 135.481 39.6518 135.704 37.7827C136.661 29.9503 132.789 21.5838 125.001 18.7356C111.65 13.7736 101.236 26.7016 103.439 39.5183C103.506 39.9254 103.417 40.3425 103.19 40.6871C102.964 41.0318 102.616 41.2789 102.216 41.3796C101.816 41.4803 101.393 41.4272 101.03 41.2309C100.668 41.0346 100.392 40.7093 100.257 40.3194V39.8743C92.959 22.2068 74.8242 0.51178 53.7745 0C53.5042 0.131776 53.2074 0.200271 52.9067 0.200271C52.6059 0.200271 52.3092 0.131776 52.0389 0C49.9155 0.0715961 47.8053 0.362406 45.7417 0.867799C17.7719 7.54319 24.8923 47.3063 30.4551 66.8874C30.8556 68.6453 28.23 70.3141 27.0061 68.712Z" fill="white"/>
</svg>
