<svg width="223" height="170" viewBox="0 0 223 170" fill="none" xmlns="http://www.w3.org/2000/svg">
<path d="M2.89943 149.149C2.97423 149.452 2.97037 149.769 2.88824 150.07C2.80611 150.372 2.64842 150.647 2.43011 150.87C7.76665 156.511 12.1788 162.959 15.5034 169.977C16.7549 160.166 24.867 151.25 35.6162 151.563C36.9269 151.596 38.2303 151.768 39.5047 152.077C36.9347 127.494 31.3255 100.186 41.7394 76.8325C50.8795 56.3846 70.1431 41.3223 91.6414 35.7131C141.029 22.7516 188.227 55.2895 212.944 96.1184C216.114 94.7722 219.601 94.3538 223 94.9117C215.067 80.5869 206.083 58.9322 210.642 42.5738C210.453 42.4931 210.285 42.3709 210.15 42.2162C174.126 2.57177 114.793 -12.8033 65.6065 12.0024C16.4197 36.8082 -8.98945 96.1184 2.89943 149.149Z" fill="#6ADFF4"/>
</svg>
