<svg width="458" height="302" viewBox="0 0 458 302" fill="none" xmlns="http://www.w3.org/2000/svg">
<path d="M24.3845 271.974C9.1845 267.078 -8.30775 284.882 4.35522 301.24C4.50262 301.418 4.68942 301.559 4.90089 301.653C5.11235 301.746 5.34268 301.789 5.57365 301.778C5.80462 301.768 6.02988 301.703 6.2317 301.59C6.43352 301.478 6.60632 301.319 6.73647 301.128C6.95202 301.276 7.19636 301.376 7.4534 301.422C7.7104 301.468 7.97425 301.459 8.22753 301.395C36.9362 294.941 65.4001 286.729 93.5524 278.206C120.258 270.15 148.143 262.627 173.447 250.988C173.604 250.907 173.738 250.788 173.839 250.644C173.939 250.499 174.003 250.331 174.025 250.156C174.047 249.981 174.026 249.804 173.964 249.638C173.902 249.473 173.801 249.325 173.67 249.208C173.847 249.176 174.013 249.1 174.152 248.986C174.291 248.871 174.398 248.723 174.463 248.555C174.528 248.387 174.548 248.206 174.522 248.028C174.496 247.85 174.425 247.681 174.315 247.539C166.57 237.747 152.26 239.282 143.537 246.738C143.249 243.045 142.028 239.487 139.988 236.396C137.949 233.305 135.157 230.783 131.875 229.067C131.888 228.979 131.888 228.889 131.875 228.8C129.65 206.545 123.997 180.663 131.875 158.853C139.753 137.044 158.781 121.198 180.68 115.412C229.64 102.504 272.058 135.263 298.63 172.963C296.315 174.262 294.328 176.074 292.822 178.26C288.771 184.246 288.148 196.063 294.691 200.648C294.666 200.884 294.698 201.122 294.785 201.343C294.872 201.564 295.011 201.76 295.19 201.916C295.369 202.071 295.584 202.18 295.815 202.235C296.046 202.289 296.286 202.287 296.516 202.228C323.222 194.572 349.371 181.998 375.721 172.585C402.07 163.171 429.132 154.558 455.838 145.634C456.163 145.528 456.44 145.312 456.623 145.024C456.806 144.736 456.882 144.393 456.839 144.054C457.048 144.018 457.246 143.934 457.417 143.81C457.589 143.687 457.731 143.526 457.832 143.339C457.932 143.153 457.989 142.946 457.999 142.735C458.008 142.523 457.969 142.312 457.885 142.118C451.209 126.539 432.359 125.516 422.567 137.444C420.764 122.4 415.779 103.328 397.976 101.948C395.205 101.695 392.413 102.036 389.786 102.949C367.984 66.2848 335.548 37.1167 296.783 19.3159C226.792 -12.9312 129.427 -6.56636 74.2352 51.8079C20.9573 108.335 6.29138 198.066 24.3845 271.974ZM6.29138 298.213C-2.74408 281.277 19.1546 265.899 31.1722 281.922C32.3962 283.525 35.0223 281.922 34.5104 280.075C28.9467 260.491 21.8252 220.788 49.7995 214.045C51.8634 213.54 53.9739 213.249 56.0976 213.177C56.3679 213.309 56.6647 213.378 56.9655 213.378C57.2663 213.378 57.5631 213.309 57.8335 213.177C78.8865 213.689 97.0241 235.432 104.324 253.058V253.503C104.458 253.893 104.734 254.218 105.097 254.415C105.459 254.611 105.883 254.664 106.283 254.563C106.683 254.463 107.03 254.216 107.257 253.871C107.483 253.526 107.572 253.109 107.506 252.702C105.281 239.883 115.607 226.953 129.071 231.916C136.86 234.764 140.733 243.043 139.776 250.966C139.553 252.835 142.001 253.191 142.958 251.901C150.658 241.708 162.809 242.554 172.579 248.83H172.379C144.672 255.996 117.699 266.633 90.2587 274.957C62.8185 283.28 34.8665 290.246 7.0703 297.634C6.76672 297.76 6.49903 297.958 6.29138 298.213ZM28.88 274.2C18.3336 232.315 18.4177 188.458 29.1248 146.613C38.7166 109.804 56.3869 72.6607 84.9843 46.8451C115.874 19.0266 159.004 5.76278 199.908 4.1827C276.509 1.22281 345.788 40.725 386.848 104.351C378.792 109.047 375.409 120.175 374.074 130.301C367.114 116.383 355.04 105.697 340.38 100.479C322.721 76.991 299.123 58.6317 272.014 47.2902C246.088 36.2656 217.727 32.2253 189.754 35.5715C161.782 38.9178 135.174 49.5339 112.58 66.3626C91.0683 82.9034 74.3775 104.902 64.2414 130.074C54.1053 155.246 50.8938 182.673 54.9403 209.505C52.3443 209.658 49.775 210.114 47.2847 210.863C21.2911 218.741 23.7836 252.034 28.9912 274.222C28.9912 274.222 28.969 274.244 28.969 274.222L28.88 274.2ZM86.7424 222.435C78.6639 215.203 68.9386 210.062 58.8127 209.461C47.3737 138.067 91.0376 68.8773 159.338 46.0884C224.989 24.2565 291.553 48.9593 335.662 99.1438C328.765 97.4558 321.512 97.9694 314.921 100.613C311.449 101.913 308.278 103.905 305.6 106.468C302.922 109.031 300.793 112.112 299.342 115.523C266.183 72.3714 199.574 60.6653 151.904 84.7005C102.499 109.67 76.3939 168.913 86.9204 222.547L86.7424 222.435ZM90.8596 226.374C91.077 226.152 91.234 225.878 91.3158 225.578C91.3976 225.278 91.4014 224.963 91.3269 224.661C79.4874 171.961 104.947 112.831 153.774 88.1945C202.601 63.5585 261.932 78.803 297.829 118.283C297.963 118.437 298.131 118.559 298.319 118.639C293.868 134.93 302.77 156.472 310.626 170.76C307.241 170.204 303.768 170.621 300.611 171.961C275.975 131.302 228.973 98.899 179.723 111.696C158.314 117.281 139.13 132.281 130.028 152.644C119.613 175.901 125.199 203.14 127.802 227.576C126.533 227.269 125.235 227.097 123.93 227.064C113.337 226.753 105.258 235.632 103.901 245.402C100.583 238.412 96.1819 231.99 90.8596 226.374ZM296.716 198.756C295.074 196.154 293.899 193.284 293.245 190.277C292.765 186.9 293.456 183.46 295.203 180.53C298.92 174.499 305.974 172.696 312.495 173.853C313.964 175.344 316.946 173.586 315.655 171.628C305.017 153.334 286.724 112.92 318.86 103.283C341.003 96.6068 369.089 118.862 373.34 139.87C373.454 140.294 373.716 140.663 374.077 140.911C374.439 141.16 374.878 141.271 375.314 141.226C375.751 141.18 376.157 140.981 376.46 140.663C376.763 140.345 376.943 139.93 376.967 139.492C377.434 125.738 380.172 103.684 399.022 105.709C415.735 107.489 418.606 128.765 419.919 141.873C420.03 143.297 422.033 144.299 422.901 142.741C430.668 128.52 447.693 129.388 455.237 142.741C427.396 150.486 399.956 159.788 372.716 169.447C347.613 178.349 320.329 186.338 296.716 198.756Z" fill="#27263F"/>
</svg>
