<svg width="366" height="271" viewBox="0 0 366 271" fill="none" xmlns="http://www.w3.org/2000/svg">
<path d="M357.901 142.715C368.616 184.591 368.7 228.48 358.146 270.397C363.358 248.125 365.852 214.874 339.839 206.99C337.347 206.24 334.776 205.784 332.178 205.631C336.227 178.779 333.013 151.332 322.87 126.141C312.726 100.95 296.023 78.9351 274.495 62.3819C251.882 45.5366 225.25 34.9103 197.252 31.5615C169.255 28.2127 140.868 32.2583 114.92 43.2953C87.7908 54.6453 64.175 73.0182 46.5026 96.5239C31.8316 101.746 19.749 112.44 12.7838 126.368C11.4475 116.234 8.06224 105.098 0 100.399C41.0907 36.7252 110.421 -2.80645 187.08 0.155644C228.037 1.73691 271.199 15.0107 302.022 42.8721C330.619 68.7069 348.302 105.878 357.901 142.715Z" fill="#FF0004"/>
</svg>
