<svg width="14" height="14" viewBox="0 0 14 14" fill="none" xmlns="http://www.w3.org/2000/svg">
<path fill-rule="evenodd" clip-rule="evenodd" d="M3.88033 0.0150052C4.0509 0.0441617 4.27402 0.130559 4.43359 0.348566L5.85032 2.28418C6.14111 2.68147 6.20273 3.20199 6.01273 3.6562L5.38198 5.16407C5.36848 5.19635 5.37668 5.21993 5.38354 5.22968C5.78339 5.79762 6.28307 6.40332 6.91205 7.035C6.92189 7.04373 6.93153 7.0528 6.94095 7.06222C7.58146 7.70279 8.19546 8.21027 8.77073 8.61532C8.78048 8.62218 8.80406 8.63038 8.83635 8.61687L10.344 7.98618C10.7982 7.79616 11.3188 7.85778 11.7161 8.14861L13.6515 9.56531C13.8695 9.72489 13.9559 9.94802 13.985 10.1186C14.0129 10.2815 13.9973 10.4361 13.976 10.5542C13.9333 10.7921 13.8367 11.0429 13.7414 11.2553C13.5467 11.6894 13.282 12.1269 13.1536 12.3174L13.0604 12.4557L13.0544 12.4645C12.7945 12.8502 12.4048 13.4284 11.7649 13.715C10.6584 14.2105 9.23017 14.0176 7.83105 13.4435C6.42591 12.8669 4.93075 11.86 3.57365 10.5165C3.5624 10.5067 3.55141 10.4964 3.5407 10.4857C2.16798 9.11299 1.14029 7.59482 0.555384 6.16929C-0.0187407 4.77006 -0.211634 3.34172 0.283922 2.23517C0.570505 1.59524 1.14862 1.20558 1.53434 0.945601C1.5373 0.943608 1.54024 0.941623 1.54318 0.939645L1.68142 0.84646C1.87194 0.71803 2.30948 0.453282 2.74354 0.258585C2.95597 0.163297 3.20679 0.0667001 3.44471 0.02396C3.56278 0.00274878 3.71743 -0.0128405 3.88033 0.0150052ZM4.41492 9.50352C4.42452 9.51206 4.43392 9.52093 4.44312 9.53013C5.71257 10.7997 7.08873 11.7202 8.32931 12.2292C9.59618 12.7491 10.6057 12.796 11.2284 12.5171C11.4806 12.4042 11.6827 12.1514 11.972 11.7221L12.0652 11.5838C12.1616 11.4408 12.3864 11.0692 12.5439 10.7182C12.5896 10.6163 12.6239 10.5286 12.6477 10.4571L10.9408 9.20768C10.9147 9.18853 10.8804 9.18447 10.8505 9.19698L9.34287 9.82768C8.91571 10.0064 8.41259 9.96834 8.01512 9.68848C7.38462 9.24454 6.72176 8.69638 6.03838 8.01575C6.02824 8.00678 6.01831 7.99744 6.0086 7.98773C5.31613 7.29526 4.75982 6.62366 4.31035 5.98524C4.03053 5.58779 3.99249 5.08471 4.17116 4.65758L4.80191 3.14971C4.81442 3.1198 4.81036 3.08553 4.79121 3.05937L3.54178 1.35233C3.47031 1.37611 3.3826 1.41041 3.28069 1.45612C2.92963 1.61359 2.55805 1.83836 2.41503 1.93477L2.27679 2.02796C1.84749 2.31735 1.59471 2.51944 1.48177 2.77161C1.20286 3.39441 1.24977 4.40408 1.76963 5.67107C2.27149 6.89417 3.17315 8.24903 4.41492 9.50352Z" fill="black"/>
</svg>
