<svg width="163" height="97" viewBox="0 0 163 97" fill="none" xmlns="http://www.w3.org/2000/svg">
<path d="M162.458 88.4943C161.802 91.5108 160.623 94.3893 158.975 97.0001C135.289 84.5428 107.918 76.5282 82.7806 67.6206C55.455 57.9539 27.9284 48.6221 0 40.8307C7.56813 27.4358 24.5574 26.4981 32.438 40.8307C33.3087 42.3934 35.318 41.3888 35.4296 39.96C36.7467 26.8107 39.6267 5.46809 56.3926 3.6821C75.3018 1.65053 78.0478 23.7745 78.5166 37.5713C78.5412 38.0109 78.7216 38.4274 79.0254 38.7461C79.3291 39.0649 79.7365 39.265 80.1745 39.3107C80.6124 39.3564 81.0523 39.2446 81.4153 38.9954C81.7783 38.7462 82.0408 38.3759 82.1555 37.9508C86.4196 16.8315 114.549 -5.4711 136.762 1.20404C169.022 10.8707 150.648 51.4127 139.999 69.7637C138.794 71.84 141.696 73.6036 143.169 71.9962C149.711 70.746 156.788 72.5543 160.516 78.6937C162.266 81.642 162.951 85.1014 162.458 88.4943Z" fill="white"/>
</svg>
