<svg width="138" height="10" viewBox="0 0 138 10" fill="none" xmlns="http://www.w3.org/2000/svg">
<path d="M22.3247 6.23817C26.0709 6.23817 29.8172 6.35082 33.487 6.23817C43.8083 6.01286 54.2061 5.67489 64.5274 5.44958C70.0322 5.33693 75.5369 5.11162 80.9651 5.33692C90.2161 5.56223 99.5435 6.1255 108.794 6.57611C114.299 6.80142 119.88 7.25202 125.385 7.58998C126.991 7.70264 128.673 7.8153 130.355 7.13938C130.202 7.47734 130.049 8.04059 129.819 8.15325C128.826 8.60386 127.755 9.16712 126.685 9.16712C123.55 9.27977 120.339 9.16715 117.204 9.05449C111.165 8.82919 105.125 8.26589 99.0848 8.04059C89.9867 7.70263 80.8887 7.25204 71.7906 7.25204C62.0809 7.25204 52.2948 7.81531 42.5851 7.92796C34.5574 8.04062 26.5296 7.8153 18.5019 7.70264C14.9086 7.58999 11.2388 7.36468 7.64543 7.13938C6.1928 7.02672 4.74017 6.80142 3.28754 6.57611C3.05817 6.57611 2.82881 6.35081 2.37008 6.12551C3.21108 5.11163 4.35789 6.35081 4.89307 4.88632C5.50471 5.67489 6.1928 5.6749 6.88089 5.6749C9.78615 5.44959 12.615 5.33694 15.5202 5.11164C24.0831 4.32306 32.7225 3.42183 41.2853 2.63325C41.7441 2.63325 42.2028 2.52061 42.6615 2.18265C39.1446 2.18265 35.7042 2.18265 32.1873 2.18265C28.5939 2.2953 24.9241 2.40794 21.3308 2.52059C17.7374 2.63325 14.2205 2.63327 10.6271 2.85857C7.11025 3.08388 3.59335 3.30917 0.0764532 3.08386C0.0764532 2.85855 0.0764543 2.63324 0 2.40793C0.305817 2.29528 0.535179 2.18265 0.840996 2.18265C12.0798 1.73204 23.3186 1.16875 34.6338 0.718138C44.5729 0.380179 54.5884 0.0422471 64.5274 0.0422471C73.8549 -0.070406 83.1823 0.0422333 92.5097 0.380193C101.608 0.718152 110.706 1.39407 119.804 2.06999C125.309 2.5206 130.89 3.08386 136.394 3.64712C136.93 3.64712 137.465 3.87244 138 4.32305C136.471 4.4357 134.865 4.66102 133.336 4.54837C123.55 4.32306 113.764 3.87243 103.978 3.64712C90.4455 3.42182 76.913 2.63327 63.3806 3.42184C56.2704 3.7598 49.0837 3.75978 41.9734 4.21039C35.3984 4.54835 28.8997 5.11164 22.3247 5.6749C22.4011 5.90021 22.3247 6.12551 22.3247 6.23817ZM44.5729 1.84467C44.5729 1.95732 44.5729 1.95734 44.5729 2.06999C47.4017 2.06999 50.3069 2.06999 53.1358 2.06999C53.1358 1.95734 53.1358 1.95732 53.1358 1.84467C50.3069 1.84467 47.4781 1.84467 44.5729 1.84467Z" fill="#DA2653"/>
</svg>
