<svg width="164" height="11" viewBox="0 0 164 11" fill="none" xmlns="http://www.w3.org/2000/svg">
<path d="M26.5307 7.44752C30.9828 7.44752 35.4349 7.58201 39.7961 7.44752C52.062 7.17853 64.4188 6.77504 76.6848 6.50605C83.2266 6.37156 89.7684 6.10257 96.2194 6.37155C107.213 6.64054 118.298 7.31301 129.292 7.85098C135.834 8.11996 142.466 8.65792 149.008 9.0614C150.916 9.19589 152.915 9.33039 154.914 8.52344C154.732 8.92692 154.551 9.59937 154.278 9.73386C153.097 10.2718 151.825 10.9443 150.553 10.9443C146.828 11.0788 143.012 10.9443 139.286 10.8098C132.109 10.5408 124.931 9.86834 117.753 9.59936C106.941 9.19588 96.1285 8.65794 85.3163 8.65794C73.7773 8.65794 62.1474 9.33041 50.6083 9.4649C41.0681 9.59939 31.528 9.33039 21.9878 9.1959C17.7174 9.06141 13.3562 8.79242 9.08587 8.52344C7.35956 8.38895 5.63324 8.11996 3.90692 7.85098C3.63435 7.85098 3.36177 7.582 2.81662 7.31302C3.81607 6.10258 5.17895 7.58199 5.81496 5.83359C6.54183 6.77504 7.35956 6.77505 8.17729 6.77505C11.6299 6.50607 14.9917 6.37158 18.4443 6.10259C28.6205 5.16115 38.8875 4.08519 49.0637 3.14374C49.6089 3.14374 50.154 3.00926 50.6992 2.60578C46.5197 2.60578 42.431 2.60578 38.2515 2.60578C33.9812 2.74028 29.6199 2.87475 25.3496 3.00924C21.0792 3.14374 16.8997 3.14376 12.6294 3.41275C8.44986 3.68173 4.27036 3.95069 0.0908573 3.68171C0.0908573 3.41272 0.0908587 3.14373 0 2.87474C0.363435 2.74025 0.63601 2.60578 0.999445 2.60578C14.3557 2.06781 27.7119 1.39533 41.159 0.857358C52.9706 0.453881 64.8731 0.0504372 76.6848 0.0504372C87.7695 -0.0840551 98.8543 0.0504208 109.939 0.453898C120.751 0.857375 131.563 1.66433 142.376 2.47128C148.917 3.00925 155.55 3.68171 162.092 4.35417C162.728 4.35417 163.364 4.62316 164 5.16113C162.183 5.29562 160.275 5.56462 158.458 5.43013C146.828 5.16115 135.198 4.62315 123.568 4.35417C107.486 4.08518 91.4039 3.14376 75.3219 4.08521C66.872 4.48868 58.3313 4.48866 49.8814 5.02663C42.0676 5.43011 34.3446 6.10259 26.5307 6.77505C26.6216 7.04404 26.5307 7.31302 26.5307 7.44752ZM52.9706 2.20228C52.9706 2.33677 52.9706 2.33679 52.9706 2.47128C56.3324 2.47128 59.785 2.47128 63.1468 2.47128C63.1468 2.33679 63.1468 2.33677 63.1468 2.20228C59.785 2.20228 56.4233 2.20228 52.9706 2.20228Z" fill="#DA2653"/>
</svg>
